<?xml version="1.0" standalone="no"?>
<!DOCTYPE svg PUBLIC "-//W3C//DTD SVG 20010904//EN"
 "http://www.w3.org/TR/2001/REC-SVG-20010904/DTD/svg10.dtd">
<svg version="1.0" xmlns="http://www.w3.org/2000/svg"
 width="512.000000pt" height="512.000000pt" viewBox="0 0 512.000000 512.000000"
 preserveAspectRatio="xMidYMid meet">
<metadata>
Created by potrace 1.11, written by Peter Selinger 2001-2013
</metadata>
<g transform="translate(0.000000,512.000000) scale(0.100000,-0.100000)"
fill="#000000" stroke="none">
<path d="M325 5088 c10 -43 60 -148 86 -182 19 -24 26 -26 71 -22 27 3 58 12
67 20 10 9 20 13 24 10 3 -3 15 3 27 14 30 28 150 60 150 41 0 -6 8 -9 18 -8
49 5 72 -4 110 -38 22 -21 43 -49 48 -63 12 -41 12 -129 -1 -214 -10 -65 -10
-84 1 -105 9 -18 10 -27 2 -32 -6 -4 -7 -12 -4 -18 4 -6 11 -9 15 -7 4 3 6 -8
3 -23 -2 -16 1 -32 8 -36 9 -5 10 -1 5 15 -11 35 17 20 35 -19 11 -25 19 -31
35 -27 17 4 25 -1 36 -26 14 -29 16 -30 32 -14 18 19 37 14 37 -10 0 -8 5 -14
11 -14 5 0 7 5 4 10 -3 6 1 10 9 10 9 0 16 9 16 21 0 11 -4 18 -9 14 -5 -3
-12 -1 -16 5 -3 6 1 13 9 16 9 3 16 14 16 23 0 15 99 91 118 91 5 0 22 14 39
30 21 20 36 28 48 24 9 -4 20 -3 24 2 10 14 49 34 67 34 9 0 29 9 45 20 58 42
264 64 378 41 78 -16 96 -14 122 14 13 13 27 25 31 25 4 0 21 14 38 30 24 23
32 40 33 74 5 77 84 167 142 162 20 -2 64 -38 66 -53 0 -5 7 -7 15 -5 9 2 14
-6 14 -23 0 -18 6 -29 20 -32 11 -3 20 -12 20 -19 0 -8 5 -14 11 -14 7 0 8
-12 4 -32 -7 -33 -118 -157 -141 -158 -7 0 -14 -7 -18 -15 -7 -19 -26 -19 -26
0 0 18 -20 16 -37 -5 -11 -13 -14 -13 -23 0 -7 12 -11 8 -16 -17 -6 -28 -11
-33 -35 -33 -22 0 -29 -5 -29 -20 0 -11 -6 -23 -14 -26 -8 -3 -18 -20 -22 -37
-9 -44 -30 -73 -67 -95 -26 -15 -38 -16 -67 -8 -19 6 -42 18 -52 28 -10 10
-25 18 -33 18 -8 0 -24 5 -34 12 -10 6 -25 9 -32 6 -8 -3 -18 -7 -24 -8 -5 -1
-21 -10 -35 -20 -14 -10 -41 -21 -60 -25 -57 -12 -136 -40 -164 -58 -15 -10
-31 -15 -36 -12 -6 3 -10 2 -10 -2 0 -14 -57 -31 -71 -22 -8 5 -26 9 -40 9
-14 0 -29 3 -33 7 -12 12 -40 12 -55 0 -11 -9 -15 -9 -18 1 -10 27 -23 10 -23
-29 0 -36 -2 -40 -15 -29 -41 34 18 -61 65 -105 17 -16 38 -42 46 -56 7 -15
34 -40 59 -55 25 -16 45 -35 45 -43 0 -8 6 -11 15 -7 9 3 18 -1 21 -9 4 -8 15
-15 25 -15 14 0 21 -9 26 -30 7 -38 23 -49 30 -21 7 28 23 27 23 -2 0 -13 6
-32 14 -43 15 -19 15 -19 29 0 13 18 15 17 21 -18 5 -28 11 -36 22 -32 9 3 17
6 20 6 2 0 1 7 -2 15 -7 18 7 20 23 4 12 -12 15 -4 28 58 10 48 24 50 31 3 7
-45 21 -52 30 -15 8 33 41 33 56 1 l11 -25 18 22 18 22 33 -33 c39 -37 48 -34
48 17 0 32 1 33 13 16 8 -10 19 -15 25 -11 6 3 15 -1 20 -11 8 -14 14 -8 32
35 23 54 40 67 40 32 0 -11 5 -20 10 -20 6 0 10 5 10 11 0 7 11 8 31 4 25 -6
31 -4 36 14 5 20 20 26 52 22 7 -2 10 2 7 7 -6 11 46 72 62 72 6 0 14 9 17 20
6 19 21 25 57 22 10 -1 18 3 18 8 0 6 7 10 15 10 11 0 15 -11 15 -37 1 -39 19
-73 39 -73 6 0 11 9 11 19 0 11 4 23 10 26 5 3 10 -2 10 -13 0 -10 11 -29 24
-41 25 -24 46 -21 46 5 0 21 21 17 27 -6 9 -33 72 -18 74 18 1 10 4 7 8 -8 9
-31 35 -33 39 -2 2 12 8 20 13 16 6 -3 16 -1 24 6 11 9 16 7 24 -9 6 -11 11
-26 11 -35 0 -8 5 -18 11 -22 8 -4 9 5 5 33 -7 36 -5 40 19 51 24 11 27 10 37
-20 l11 -32 13 45 c8 24 12 50 9 57 -6 15 7 16 23 0 9 -9 12 -8 12 5 0 19 15
23 25 7 9 -14 55 -13 55 2 0 6 11 1 25 -12 20 -19 27 -21 39 -11 8 7 20 10 25
7 5 -4 13 -1 17 5 5 8 9 8 14 -1 4 -7 15 -10 24 -7 13 5 15 15 10 48 l-7 41
32 -7 c28 -6 31 -5 31 19 0 14 4 26 10 26 5 0 12 11 16 24 3 13 15 32 28 43
17 15 21 29 20 66 -2 44 0 48 20 45 17 -2 22 3 24 31 2 19 -2 37 -9 41 -7 5
-9 18 -6 33 6 20 11 23 32 19 21 -4 24 -1 19 14 -4 11 -10 24 -14 29 -4 6 -10
22 -12 38 -4 21 -1 27 13 27 22 0 24 11 7 29 -11 10 -8 12 12 10 14 -2 31 0
38 4 7 5 14 2 18 -7 15 -39 41 -15 88 82 27 53 59 111 71 127 12 17 25 42 29
58 3 15 22 48 41 73 19 25 35 50 35 56 0 6 7 20 17 30 16 17 -37 18 -1671 18
l-1688 0 7 -32z m1659 -727 c3 -5 -1 -11 -9 -15 -15 -6 -29 7 -18 18 9 9 21 8
27 -3z m743 -283 c-3 -8 -6 -5 -6 6 -1 11 2 17 5 13 3 -3 4 -12 1 -19z"/>
<path d="M4444 5104 c3 -9 6 -18 6 -20 0 -2 7 -4 15 -4 17 0 20 -25 5 -35 -6
-4 -7 -11 -4 -17 4 -6 10 -6 17 1 16 16 30 13 23 -4 -6 -18 -2 -19 26 -4 19
10 20 9 15 -10 -4 -18 -2 -20 19 -15 19 5 23 3 18 -10 -7 -18 7 -21 23 -5 8 8
18 6 38 -7 23 -15 28 -15 37 -3 6 10 11 10 14 3 3 -7 14 -10 24 -7 11 3 18 9
15 13 -2 4 7 5 20 2 27 -5 32 -21 13 -41 -11 -11 -9 -12 11 -6 16 5 21 4 17
-4 -4 -6 -3 -11 2 -11 10 0 9 -36 -1 -46 -4 -4 -1 -14 6 -22 10 -13 9 -15 -5
-9 -10 3 -18 2 -18 -3 0 -6 -12 -10 -26 -10 -14 0 -23 -4 -19 -10 3 -5 1 -10
-4 -10 -15 0 -14 -27 2 -34 6 -3 2 -3 -10 0 -17 4 -23 1 -23 -10 0 -9 8 -16
19 -16 11 0 23 -4 26 -10 3 -5 -1 -10 -9 -10 -9 0 -16 -7 -16 -15 0 -8 9 -15
19 -15 10 0 21 -7 25 -15 3 -8 11 -15 18 -15 28 0 49 -96 33 -147 -4 -13 -14
-23 -22 -23 -8 0 -12 -4 -9 -9 9 -14 -86 -109 -125 -125 -37 -15 -58 -54 -42
-79 3 -6 8 -54 10 -107 4 -116 8 -170 16 -190 12 -33 20 -76 18 -97 -2 -14 3
-23 11 -23 23 0 68 -24 68 -36 0 -6 17 -16 38 -22 27 -9 44 -23 66 -57 26 -42
28 -51 23 -118 -10 -143 -30 -265 -48 -300 -5 -9 -7 -28 -3 -42 4 -16 2 -25
-6 -25 -7 0 -10 7 -6 15 3 8 1 15 -4 15 -5 0 -10 -9 -12 -20 -2 -12 -5 -20 -8
-18 -9 4 -50 -36 -50 -49 0 -7 6 -13 14 -13 23 0 31 -22 13 -35 -10 -7 -17
-22 -17 -34 0 -12 -7 -24 -15 -28 -44 -16 -58 -149 -20 -177 17 -13 18 -18 7
-36 -11 -17 -9 -24 8 -42 11 -12 20 -27 20 -34 0 -6 7 -17 15 -24 13 -11 13
-14 0 -27 -20 -20 -19 -34 3 -40 13 -3 19 -14 19 -33 0 -29 -15 -41 -64 -55
-16 -4 -23 -14 -23 -30 0 -27 21 -37 58 -29 l27 7 -28 -27 c-15 -14 -39 -26
-53 -26 -15 0 -23 -4 -19 -11 4 -6 19 -7 37 -4 27 6 29 5 23 -14 -5 -17 -2
-21 14 -21 37 0 19 -32 -19 -35 -44 -4 -51 -6 -45 -15 3 -5 12 -7 20 -3 9 3
15 -1 15 -10 0 -10 -11 -14 -36 -13 -22 1 -39 -4 -41 -11 -3 -8 4 -13 16 -13
12 0 21 -4 21 -10 0 -5 -11 -10 -25 -10 -14 0 -25 -5 -25 -11 0 -5 -5 -7 -11
-3 -6 3 -9 19 -5 35 4 24 2 29 -13 29 -10 0 -24 7 -31 15 -9 11 -16 12 -25 5
-9 -8 -17 -6 -29 5 -20 20 -20 26 -1 19 9 -4 15 0 15 10 0 9 -8 16 -19 16 -11
0 -23 5 -27 11 -4 6 -20 8 -40 4 -26 -4 -34 -3 -34 9 0 8 9 17 19 21 29 9 35
35 8 35 -35 0 -53 16 -39 32 9 11 9 17 0 26 -16 16 -41 15 -83 -2 -31 -13 -34
-13 -37 2 -3 14 -7 12 -17 -8 -23 -42 -95 -150 -98 -146 -2 1 8 25 21 51 33
69 22 82 -58 79 -80 -4 -128 -13 -145 -27 -12 -10 -14 -9 -8 6 9 24 -5 21 -36
-7 -27 -25 -26 -36 5 -36 14 0 17 -5 12 -24 -5 -22 -2 -25 29 -31 25 -5 34
-11 30 -21 -3 -10 5 -16 26 -20 31 -7 39 -18 21 -29 -16 -10 -12 -25 5 -19 20
8 19 -1 -1 -21 -9 -9 -13 -19 -9 -23 3 -4 15 4 25 18 10 14 33 41 50 60 l32
35 -23 -40 c-13 -22 -26 -42 -29 -45 -10 -9 -40 -59 -40 -68 0 -4 16 -6 35 -4
36 4 50 -13 19 -25 -12 -4 -8 -9 15 -21 25 -12 29 -17 19 -29 -9 -11 -7 -15
10 -20 12 -3 22 -9 22 -14 0 -5 11 -7 25 -3 14 3 25 2 25 -4 0 -14 -79 -66
-87 -58 -4 4 -1 11 7 16 13 8 12 10 -2 10 -10 0 -18 -5 -18 -11 0 -12 -37 -3
-58 14 -7 6 -30 11 -50 11 -31 1 -36 -2 -34 -18 3 -13 -1 -17 -12 -13 -9 4
-15 1 -13 -5 1 -7 -7 -14 -18 -16 -11 -2 -25 -12 -32 -21 -10 -13 -12 -13 -13
-1 0 10 -6 8 -22 -8 -20 -19 -21 -24 -8 -32 8 -5 33 -7 54 -3 28 4 37 3 32 -5
-4 -7 -15 -12 -25 -12 -10 0 -25 -9 -32 -20 -10 -14 -26 -21 -56 -22 -50 -2
-57 -15 -10 -20 17 -2 31 -7 30 -13 -1 -5 8 -14 20 -18 21 -8 21 -9 3 -19 -10
-6 -42 -17 -70 -24 -48 -13 -52 -12 -66 7 -9 11 -19 17 -22 13 -4 -3 7 -18 24
-32 26 -22 34 -24 59 -15 18 7 40 8 57 3 23 -7 24 -8 5 -9 -12 -1 -25 -5 -28
-11 -3 -5 -18 -10 -33 -11 -24 0 -25 -1 -7 -9 16 -7 13 -9 -17 -9 -21 -1 -38
4 -38 10 0 13 -58 5 -73 -10 -6 -6 -21 -11 -33 -11 -13 0 -26 -4 -29 -10 -10
-16 51 -12 65 5 16 19 40 19 40 1 0 -21 -13 -27 -71 -32 -55 -5 -89 -18 -89
-34 0 -6 11 -10 23 -10 34 0 41 -12 16 -26 l-22 -12 22 -11 c15 -9 20 -18 16
-32 -5 -14 -3 -17 9 -13 17 7 22 -11 6 -21 -19 -12 -10 -23 25 -29 38 -7 54
-24 35 -36 -14 -9 -5 -30 13 -30 7 0 6 4 -3 11 -11 7 0 8 40 5 30 -3 134 -12
230 -20 96 -8 245 -24 330 -35 246 -33 241 -33 204 -21 -18 5 -34 19 -37 29
-6 24 0 31 26 31 18 0 17 2 -4 19 -29 23 -22 33 25 33 20 0 36 4 36 9 0 5 -7
9 -15 9 -8 0 -15 7 -15 15 0 11 7 14 24 9 21 -5 24 -2 22 21 -1 22 -5 25 -23
20 -18 -4 -23 -1 -23 13 0 10 -5 23 -11 29 -16 16 -1 37 16 23 17 -14 28 2 18
26 -5 13 -3 16 10 11 9 -3 19 -2 22 3 4 6 0 10 -7 10 -8 1 -6 6 6 15 20 15 18
17 -19 19 -25 1 -32 33 -8 38 15 3 12 7 -12 20 -33 18 -30 21 45 36 l45 10
-48 1 c-40 1 -50 5 -54 21 -3 12 -14 20 -27 21 -11 1 -28 2 -36 3 -8 2 -23 3
-32 4 -10 1 -18 6 -18 10 0 5 39 9 87 8 59 0 88 3 91 12 3 9 9 9 24 1 14 -8
23 -8 31 0 16 16 27 14 27 -5 0 -12 10 -14 50 -12 56 3 68 20 20 28 -49 8 -35
22 24 23 62 2 75 10 56 33 -12 13 -11 17 1 25 10 8 8 9 -9 4 -12 -4 -37 -3
-54 0 -25 6 -28 9 -16 16 9 5 35 11 59 13 24 2 45 9 47 15 2 7 -21 11 -74 11
-132 0 -58 26 84 30 6 0 12 10 12 22 0 12 3 18 7 15 3 -4 12 -2 20 5 11 9 21
6 44 -11 16 -12 34 -19 39 -16 6 3 10 2 10 -3 0 -5 9 -12 21 -15 11 -3 23 -15
26 -26 7 -26 27 -27 53 -1 20 20 20 33 20 1500 l0 1480 -341 0 c-307 0 -341
-2 -335 -16z m221 -104 c3 -5 1 -10 -4 -10 -6 0 -11 5 -11 10 0 6 2 10 4 10 3
0 8 -4 11 -10z m130 -1790 c3 -5 1 -10 -4 -10 -6 0 -11 5 -11 10 0 6 2 10 4
10 3 0 8 -4 11 -10z m-504 -634 c5 3 9 1 9 -5 0 -5 -4 -13 -10 -16 -5 -3 -10
-4 -10 -1 0 2 -2 10 -3 18 -2 7 -2 10 0 5 3 -4 9 -5 14 -1z m64 -106 c-3 -5
-10 -10 -16 -10 -5 0 -9 5 -9 10 0 6 7 10 16 10 8 0 12 -4 9 -10z m32 -26 c-3
-3 -12 -4 -19 -1 -8 3 -5 6 6 6 11 1 17 -2 13 -5z m53 -47 c0 -17 -20 -37 -37
-37 -19 0 -16 27 5 39 23 14 32 13 32 -2z m373 7 c4 -4 5 -10 2 -14 -6 -9 -65
0 -65 11 0 10 53 12 63 3z m-433 -53 c0 -12 -39 -25 -47 -17 -4 3 1 6 10 6 10
0 17 5 17 10 0 6 5 10 10 10 6 0 10 -4 10 -9z m415 -25 c6 -1 16 -5 23 -10 10
-6 9 -11 -5 -21 -11 -9 -22 -10 -29 -4 -8 6 -17 1 -27 -15 -15 -23 -15 -24 5
-18 16 4 19 2 13 -9 -5 -8 0 -7 12 4 18 16 21 16 33 2 11 -13 11 -20 0 -39 -9
-18 -24 -25 -61 -30 -27 -4 -49 -12 -49 -18 0 -7 -4 -7 -12 -1 -17 14 -51 13
-60 -1 -5 -6 -8 -1 -8 12 0 13 -6 22 -15 22 -9 0 -15 7 -13 17 2 11 -6 19 -21
23 -33 8 -38 28 -9 32 29 4 28 19 -3 35 l-24 13 30 1 c17 0 39 4 50 9 16 6
114 4 170 -4z m-629 -43 c-10 -10 -19 5 -10 18 6 11 8 11 12 0 2 -7 1 -15 -2
-18z m74 13 c0 -3 -4 -8 -10 -11 -5 -3 -10 -1 -10 4 0 6 5 11 10 11 6 0 10 -2
10 -4z m730 -56 c0 -5 -7 -10 -15 -10 -8 0 -15 5 -15 10 0 6 7 10 15 10 8 0
15 -4 15 -10z m-724 -125 c0 -14 -4 -25 -7 -25 -10 0 -20 31 -13 41 10 17 22
9 20 -16z m-46 -14 c-6 -13 -21 -21 -35 -21 -35 0 -31 17 5 25 17 4 30 11 30
17 0 6 3 9 6 6 3 -4 1 -16 -6 -27z m-74 -26 c14 -13 13 -15 -10 -15 -25 0 -33
10 -19 23 9 10 13 9 29 -8z m490 -11 c-3 -9 -6 -20 -6 -25 0 -5 -4 -9 -10 -9
-11 0 -14 33 -3 43 12 13 25 7 19 -9z m-386 2 c0 -2 -7 -6 -15 -10 -8 -3 -15
-1 -15 4 0 6 7 10 15 10 8 0 15 -2 15 -4z m40 -26 c0 -6 12 -8 28 -4 21 4 24
3 12 -5 -8 -6 -26 -9 -40 -8 -14 2 -19 2 -12 0 6 -3 12 -9 12 -14 0 -5 18 -9
39 -9 45 0 91 -15 91 -29 0 -5 -25 -8 -57 -6 -32 3 -49 2 -38 -1 11 -3 27 -12
36 -20 13 -12 55 -19 133 -23 11 -1 16 -4 13 -8 -4 -3 1 -15 10 -26 18 -19 17
-19 -29 -13 -28 4 -49 2 -53 -4 -3 -5 1 -10 9 -10 8 0 17 -4 20 -9 5 -8 -68
-7 -131 3 -18 3 -33 1 -33 -4 0 -13 -28 -2 -72 29 -36 25 -50 51 -27 51 7 0 9
11 6 30 -5 25 -3 30 13 30 10 0 22 5 26 11 4 7 -10 9 -50 4 -76 -10 -72 8 7
27 80 19 87 20 87 8z m125 0 c3 -5 -1 -10 -10 -10 -9 0 -13 5 -10 10 3 6 8 10
10 10 2 0 7 -4 10 -10z m-325 -61 c0 -5 -9 -9 -20 -9 -13 0 -18 5 -14 14 6 15
34 11 34 -5z m-110 -13 c0 -8 13 -20 29 -27 34 -15 31 -29 -4 -29 -18 0 -23 4
-19 15 4 10 0 15 -11 15 -11 0 -15 5 -12 14 3 8 1 17 -6 20 -7 2 -4 5 6 5 9 1
17 -5 17 -13z m205 4 c-3 -5 -13 -10 -21 -10 -8 0 -14 5 -14 10 0 6 9 10 21
10 11 0 17 -4 14 -10z m-20 -140 c4 -6 -6 -10 -22 -10 -22 0 -25 2 -13 10 19
12 27 12 35 0z m85 0 c0 -12 -27 -12 -55 0 -16 7 -13 9 18 9 20 1 37 -3 37 -9z
m180 -30 c12 -8 11 -10 -7 -10 -13 0 -23 5 -23 10 0 13 11 13 30 0z m-432 -27
c6 -19 -53 -16 -69 3 -11 14 -8 15 26 12 21 -2 40 -9 43 -15z m532 -3 c0 -5
-4 -10 -10 -10 -5 0 -10 5 -10 10 0 6 5 10 10 10 6 0 10 -4 10 -10z m-495 -10
c3 -5 -1 -10 -9 -10 -9 0 -16 5 -16 10 0 6 4 10 9 10 6 0 13 -4 16 -10z"/>
<path d="M4624 2239 c-9 -15 13 -36 36 -35 28 1 26 16 -4 31 -16 9 -28 10 -32
4z"/>
<path d="M4200 1968 c0 -4 16 -8 35 -8 19 0 35 5 35 10 0 6 -16 10 -35 8 -19
-1 -35 -6 -35 -10z"/>
<path d="M4540 4789 c0 -5 5 -7 10 -4 6 3 10 8 10 11 0 2 -4 4 -10 4 -5 0 -10
-5 -10 -11z"/>
<path d="M0 4708 c0 -72 3 -88 15 -88 18 0 20 31 4 47 -9 9 -6 10 11 6 21 -5
22 -3 17 18 -4 13 -7 31 -7 39 0 8 -9 26 -20 40 l-20 25 0 -87z"/>
<path d="M0 4508 c0 -43 4 -68 11 -68 7 0 8 14 4 40 -4 26 -3 40 4 40 15 0 14
13 -4 36 -13 17 -14 13 -15 -48z"/>
<path d="M3330 4499 c0 -5 5 -7 10 -4 6 3 10 8 10 11 0 2 -4 4 -10 4 -5 0 -10
-5 -10 -11z"/>
<path d="M4249 4433 c-13 -15 -12 -15 9 -4 23 12 28 21 13 21 -5 0 -15 -7 -22
-17z"/>
<path d="M4253 4385 c-24 -24 -28 -30 -10 -17 16 12 35 18 43 15 10 -4 12 0 8
11 -8 20 9 21 26 1 11 -13 8 -16 -19 -21 -17 -4 -32 -10 -32 -15 -1 -5 -2 -14
-3 -19 0 -6 -7 -14 -14 -19 -10 -6 -11 -18 -3 -51 5 -23 7 -49 4 -56 -3 -8 0
-14 6 -14 6 0 11 -4 11 -10 0 -5 -7 -10 -15 -10 -8 0 -15 -6 -15 -14 0 -8 -6
-16 -12 -19 -7 -2 -10 -8 -6 -12 4 -4 14 -2 23 5 12 10 15 10 15 -3 0 -9 -13
-26 -30 -38 -38 -28 -31 -38 25 -36 44 1 65 -15 26 -21 -11 -2 -25 -10 -32
-18 -11 -14 -8 -15 23 -9 39 7 82 -1 73 -15 -3 -4 -27 -13 -55 -20 -38 -9 -50
-16 -50 -31 0 -13 -7 -19 -22 -20 -44 -1 -84 -10 -138 -28 -30 -10 -75 -19
-100 -20 -24 -1 -49 -6 -55 -12 -7 -9 1 -10 32 -6 24 3 45 1 48 -3 5 -8 -4
-12 -55 -24 -14 -3 -30 -17 -37 -32 -11 -23 -10 -25 5 -19 71 31 99 36 159 29
37 -4 60 -10 57 -16 -4 -6 18 -9 57 -8 78 3 104 1 98 -5 -10 -10 -192 -18
-186 -8 6 9 -108 -8 -155 -23 -28 -8 -21 -24 10 -24 l27 -1 -35 -29 c-19 -17
-46 -33 -60 -37 -26 -6 -40 -20 -40 -39 0 -11 24 -11 90 1 l35 7 -48 -32 c-26
-18 -52 -41 -58 -51 -12 -23 -1 -24 29 -3 13 9 26 14 29 11 2 -3 -8 -12 -24
-21 -16 -8 -63 -46 -104 -85 -77 -74 -89 -81 -89 -56 0 8 4 15 9 15 5 0 13 9
16 20 4 11 15 20 27 20 14 0 18 5 14 16 -3 9 -6 18 -6 20 0 2 -11 4 -25 4 -18
0 -28 -7 -34 -24 -11 -27 -40 -41 -55 -26 -5 5 -19 10 -30 10 -12 0 -33 7 -49
15 -25 13 -29 12 -48 -8 -23 -24 -109 -145 -109 -153 0 -2 -18 -27 -40 -55
-49 -63 -52 -82 -5 -35 19 20 35 40 35 46 0 5 3 9 8 8 4 -1 21 5 37 15 24 13
26 16 11 17 -16 0 -17 3 -8 12 7 7 12 20 12 30 0 10 5 18 10 18 6 0 10 -11 10
-24 0 -13 5 -26 12 -28 7 -3 4 -15 -12 -35 -12 -17 -22 -44 -22 -60 0 -26 -38
-73 -60 -73 -4 0 -8 -4 -8 -10 0 -5 4 -10 8 -10 14 0 102 89 102 102 0 10 -3
10 -9 -1 -5 -7 -14 -12 -20 -10 -7 3 -3 16 11 36 28 39 52 52 43 23 -4 -13 -2
-20 6 -20 8 0 6 -6 -4 -18 -75 -83 110 57 239 180 105 101 161 140 248 175 77
30 81 29 25 -5 -25 -15 -56 -37 -69 -49 -13 -13 -28 -23 -34 -23 -16 0 6 -17
33 -25 16 -5 21 -4 17 4 -4 6 0 11 9 11 11 0 15 -6 11 -17 -3 -10 -8 -31 -12
-46 -5 -20 -11 -26 -24 -22 -18 6 -53 -22 -83 -64 -22 -32 -34 -20 -12 13 16
24 13 52 -5 41 -4 -3 -10 4 -13 15 -4 14 2 24 21 33 15 7 26 19 25 25 -2 7 2
12 9 12 6 0 8 3 5 6 -6 6 -72 -47 -188 -151 -31 -27 -95 -81 -142 -120 -47
-38 -85 -77 -84 -85 1 -8 -7 -16 -17 -18 -19 -4 -40 -22 -66 -56 -13 -18 -13
-19 0 -11 8 4 23 15 32 23 10 8 24 12 33 8 9 -3 13 -2 10 3 -3 5 5 17 17 26
20 13 21 17 8 25 -8 5 -13 10 -10 11 3 0 14 2 25 4 11 2 21 9 23 14 2 6 9 11
15 11 8 0 7 -4 -1 -12 -18 -18 -14 -31 8 -25 21 5 28 -7 10 -18 -25 -16 7 -21
114 -18 75 3 116 0 116 -7 0 -5 -12 -10 -27 -10 -57 0 -103 -13 -103 -27 0 -9
6 -13 14 -10 8 3 17 -1 20 -10 5 -12 9 -13 21 -3 11 9 15 9 15 1 0 -14 -22
-54 -35 -63 -5 -4 0 -8 13 -8 12 0 22 -6 22 -12 0 -16 43 30 53 56 6 14 10 16
21 6 12 -9 20 -8 41 6 14 9 28 14 32 11 7 -8 -24 -57 -37 -57 -6 0 -10 -6 -10
-13 0 -8 -9 -22 -20 -32 -11 -10 -18 -20 -16 -22 8 -8 53 20 97 60 23 20 28
21 52 3 15 -12 16 -18 7 -35 -10 -21 3 -31 15 -12 3 5 19 12 36 16 20 5 27 10
21 18 -21 28 -10 57 34 93 36 30 47 34 59 24 12 -10 15 -10 15 0 0 7 8 10 20
7 11 -3 20 -2 20 2 0 5 28 7 63 6 60 -3 63 -1 91 32 16 18 26 36 23 39 -6 6
-48 -16 -59 -31 -5 -6 -8 -6 -8 2 0 6 12 25 26 43 18 21 32 58 45 118 11 48
24 99 30 114 7 18 7 32 0 46 -7 13 -7 22 1 30 12 12 11 13 -32 15 -19 2 -25 7
-24 25 0 16 -4 21 -13 17 -8 -3 -19 -5 -24 -5 -6 0 -7 -4 -4 -10 3 -5 2 -10
-4 -10 -5 0 -15 24 -21 54 -9 44 -8 61 3 89 8 18 18 57 22 85 4 33 12 52 20
52 8 0 17 9 20 20 6 19 16 24 42 21 22 -3 40 39 42 99 2 50 0 59 -13 54 -20
-8 -20 5 0 34 14 20 14 23 0 28 -9 3 -16 12 -16 20 0 8 -4 14 -9 14 -4 0 -6
11 -3 25 5 29 -4 31 -36 9 -12 -8 -22 -10 -22 -5 0 6 -7 11 -15 11 -8 0 -15
-7 -15 -16 0 -14 -3 -14 -16 -3 -14 11 -14 13 1 22 12 6 14 17 10 37 -4 19 -2
29 8 33 13 5 26 76 28 150 0 10 7 21 15 24 22 8 17 20 -13 26 -16 3 -36 9 -45
12 -11 4 -29 -5 -55 -30z m-125 -530 c-10 -10 -98 -14 -98 -5 0 6 23 10 52 10
28 0 49 -2 46 -5z m-68 -115 c-20 -13 -63 -13 -55 0 3 6 21 10 38 10 24 0 28
-3 17 -10z m219 -81 c-22 -14 -33 -10 -19 6 7 8 17 12 22 9 6 -4 5 -10 -3 -15z
m-758 -262 c-25 -26 -28 -10 -3 21 9 12 19 16 21 11 2 -6 -6 -21 -18 -32z
m109 25 c0 -4 -9 -13 -20 -20 -19 -12 -20 -11 -8 8 13 20 28 27 28 12z m230 3
c0 -10 -62 -66 -67 -61 -3 3 8 18 23 35 27 28 44 38 44 26z m130 -46 c0 -6 -4
-7 -10 -4 -5 3 -10 11 -10 16 0 6 5 7 10 4 6 -3 10 -11 10 -16z m-10 -28 c0
-5 -7 -11 -15 -15 -9 -3 -15 0 -15 9 0 8 7 15 15 15 8 0 15 -4 15 -9z m-216
-26 c-4 -8 -10 -15 -16 -15 -5 0 -7 -4 -3 -9 3 -5 0 -13 -6 -17 -8 -4 -9 -3
-5 4 4 7 2 12 -5 12 -6 0 -1 9 12 20 29 24 30 24 23 5z"/>
<path d="M4129 4333 c-13 -16 -12 -17 4 -4 9 7 17 15 17 17 0 8 -8 3 -21 -13z"/>
<path d="M4139 4293 l-34 -37 43 33 c23 18 42 35 42 37 0 13 -20 0 -51 -33z"/>
<path d="M4089 4303 c-13 -16 -12 -17 4 -4 16 13 21 21 13 21 -2 0 -10 -8 -17
-17z"/>
<path d="M1145 4300 c3 -5 8 -10 11 -10 2 0 4 5 4 10 0 6 -5 10 -11 10 -5 0
-7 -4 -4 -10z"/>
<path d="M4360 4260 c0 -5 4 -10 9 -10 6 0 13 5 16 10 3 6 -1 10 -9 10 -9 0
-16 -4 -16 -10z"/>
<path d="M4410 4184 c0 -8 5 -12 10 -9 6 3 10 10 10 16 0 5 -4 9 -10 9 -5 0
-10 -7 -10 -16z"/>
<path d="M4462 4124 c-32 -22 -29 -58 4 -36 15 10 37 52 27 52 -5 0 -19 -7
-31 -16z"/>
<path d="M3550 4087 c0 -9 -3 -17 -7 -17 -18 -1 -52 -39 -59 -64 -8 -34 13
-35 26 -1 5 14 14 25 19 25 11 0 36 59 27 67 -3 3 -6 -1 -6 -10z"/>
<path d="M3625 4060 c-10 -11 -15 -20 -11 -20 11 0 39 30 34 36 -3 2 -13 -5
-23 -16z"/>
<path d="M3443 4038 c-25 -32 -26 -40 -4 -29 11 7 21 18 21 26 0 18 -5 19 -17
3z"/>
<path d="M3547 4023 c-4 -3 -7 -11 -7 -17 0 -6 5 -5 12 2 6 6 9 14 7 17 -3 3
-9 2 -12 -2z"/>
<path d="M3565 3964 c-9 -15 -12 -23 -6 -20 11 7 35 46 28 46 -3 0 -12 -12
-22 -26z"/>
<path d="M3616 3973 c-6 -14 -5 -15 5 -6 7 7 10 15 7 18 -3 3 -9 -2 -12 -12z"/>
<path d="M3486 3913 c-6 -14 -5 -15 5 -6 7 7 10 15 7 18 -3 3 -9 -2 -12 -12z"/>
<path d="M3550 3878 c-7 -18 -16 -37 -18 -43 -3 -5 4 0 15 13 11 12 25 22 31
22 24 0 22 -23 -4 -51 -33 -35 -31 -35 31 -8 39 17 49 19 56 8 6 -10 9 -7 9
11 0 19 3 21 9 11 8 -12 14 -12 40 -1 17 7 31 16 31 21 0 12 -14 11 -27 -2
-14 -14 -47 -4 -38 11 3 5 -1 10 -9 10 -8 0 -18 -4 -21 -10 -9 -15 -25 -12
-25 5 0 8 5 15 12 15 6 0 8 3 5 6 -4 4 -18 -1 -32 -10 -26 -17 -27 -17 -32 3
-8 29 -16 26 -33 -11z"/>
<path d="M3868 3826 c-16 -8 -28 -12 -28 -9 0 3 -7 -1 -17 -8 -9 -8 -18 -12
-20 -11 -3 2 -8 0 -11 -4 -4 -4 -1 -4 6 0 6 4 12 2 12 -3 0 -6 -8 -11 -18 -11
-17 0 -48 -37 -39 -47 6 -5 69 28 117 63 55 39 53 59 -2 30z"/>
<path d="M3830 3675 c-16 -19 0 -19 26 0 16 12 16 14 3 15 -9 0 -22 -7 -29
-15z"/>
<path d="M12 3558 c-9 -9 -12 -180 -12 -765 l0 -752 56 4 c57 5 83 22 84 55 0
12 -2 12 -9 1 -6 -9 -11 -10 -15 -2 -4 6 -4 16 -1 21 3 6 1 10 -4 10 -6 0 -11
11 -11 25 0 23 3 25 47 22 29 -1 48 2 48 9 0 14 31 44 44 44 6 0 11 -7 11 -16
0 -14 7 -15 42 -10 50 8 56 12 40 28 -18 18 -14 32 14 49 l26 16 -36 22 c-31
20 -41 36 -37 63 0 4 -17 22 -39 41 -22 19 -40 37 -40 40 0 3 15 3 34 0 33 -5
34 -5 31 28 -1 19 -13 63 -26 99 -13 36 -24 82 -23 103 1 25 -6 45 -20 61 -42
46 -71 99 -79 144 -4 18 -3 31 2 28 5 -3 11 7 14 22 3 15 1 29 -4 30 -5 2 -9
12 -9 23 0 10 -5 19 -11 19 -6 0 -9 6 -6 13 2 6 0 20 -5 30 -5 9 -6 23 -2 29
13 21 12 122 -2 162 -16 45 -49 182 -59 243 -8 54 -26 78 -43 61z m265 -1294
c-3 -3 -12 -4 -19 -1 -8 3 -5 6 6 6 11 1 17 -2 13 -5z"/>
<path d="M2967 3491 c-19 -34 -28 -67 -30 -112 -2 -36 -9 -65 -15 -67 -15 -5
-16 -42 -2 -42 6 0 10 6 10 14 0 8 4 17 9 20 5 3 9 -15 9 -41 1 -44 12 -77 12
-35 0 11 5 33 11 49 l11 28 14 -30 c7 -17 13 -23 14 -13 0 9 4 18 8 20 13 5
24 118 12 118 -5 0 -10 -4 -10 -10 0 -5 -5 -9 -11 -7 -7 1 -16 -13 -21 -30 -5
-18 -13 -33 -18 -33 -19 0 -10 51 14 77 14 15 22 33 19 44 -3 11 0 25 6 33 8
9 8 21 1 40 -5 14 -11 26 -13 26 -2 0 -16 -22 -30 -49z"/>
<path d="M3323 3488 c-6 -22 -7 -38 -2 -38 13 0 21 24 17 52 -2 19 -5 17 -15
-14z"/>
<path d="M3470 3455 c-51 -69 -52 -83 -2 -18 44 55 55 73 48 73 -3 0 -24 -25
-46 -55z"/>
<path d="M3389 3463 c-26 -32 -60 -83 -55 -83 9 0 79 90 74 95 -3 3 -11 -3
-19 -12z"/>
<path d="M3960 3470 c0 -5 5 -10 10 -10 6 0 10 5 10 10 0 6 -4 10 -10 10 -5 0
-10 -4 -10 -10z"/>
<path d="M3419 3438 c-12 -23 -12 -23 10 -4 23 21 26 26 11 26 -5 0 -15 -10
-21 -22z"/>
<path d="M3397 3353 c-11 -13 -17 -26 -14 -29 2 -3 12 7 21 22 23 33 17 39 -7
7z"/>
<path d="M2860 3315 c0 -10 -5 -33 -12 -51 -10 -29 -9 -36 7 -54 28 -31 38
-25 30 18 -4 20 -9 49 -10 65 -2 31 -15 50 -15 22z"/>
<path d="M2811 3249 c-1 -23 6 -46 19 -60 23 -28 25 -19 6 24 -8 18 -17 41
-19 52 -3 11 -5 4 -6 -16z"/>
<path d="M3337 3263 c-4 -3 -7 -11 -7 -17 0 -6 5 -5 12 2 6 6 9 14 7 17 -3 3
-9 2 -12 -2z"/>
<path d="M2737 3240 c3 -11 9 -20 13 -20 5 0 6 9 3 20 -3 11 -9 20 -13 20 -5
0 -6 -9 -3 -20z"/>
<path d="M2910 3251 c0 -5 5 -13 10 -16 6 -3 10 -2 10 4 0 5 -4 13 -10 16 -5
3 -10 2 -10 -4z"/>
<path d="M3256 3245 c-3 -8 -1 -15 4 -15 6 0 10 7 10 15 0 8 -2 15 -4 15 -2 0
-6 -7 -10 -15z"/>
<path d="M2016 3221 c-3 -5 5 -20 19 -35 14 -15 22 -33 19 -41 -5 -11 -2 -13
10 -9 20 8 20 17 1 53 -15 30 -41 46 -49 32z"/>
<path d="M2081 3214 c0 -11 3 -14 6 -6 3 7 2 16 -1 19 -3 4 -6 -2 -5 -13z"/>
<path d="M2780 3193 c0 -10 4 -24 9 -31 5 -9 8 -3 7 17 -1 32 -16 45 -16 14z"/>
<path d="M2590 3154 c0 -11 7 -29 15 -40 19 -25 19 -4 0 32 -12 24 -15 26 -15
8z"/>
<path d="M2865 3150 c3 -5 8 -10 11 -10 2 0 4 5 4 10 0 6 -5 10 -11 10 -5 0
-7 -4 -4 -10z"/>
<path d="M646 3141 c-4 -5 -2 -12 3 -15 5 -4 12 -2 15 3 4 5 2 12 -3 15 -5 4
-12 2 -15 -3z"/>
<path d="M2451 3135 c-1 -11 -4 -31 -7 -45 -6 -23 -6 -24 11 -8 14 13 15 21 7
45 -8 21 -11 23 -11 8z"/>
<path d="M2740 3108 c0 -25 3 -29 10 -18 8 12 10 12 10 -5 0 -11 3 -45 6 -75
4 -42 3 -51 -6 -40 -9 13 -11 12 -8 -4 2 -11 7 -18 11 -15 5 2 17 -12 28 -31
23 -43 25 -19 5 57 -8 31 -10 55 -5 60 11 11 -27 103 -41 103 -6 0 -10 -15
-10 -32z"/>
<path d="M2074 3116 c-7 -8 -5 -17 8 -30 18 -19 18 -19 18 0 0 29 -13 44 -26
30z"/>
<path d="M2259 3116 c-15 -11 -15 -13 1 -34 10 -12 21 -40 25 -62 4 -22 11
-43 16 -46 6 -3 8 4 5 18 -3 12 -8 43 -11 68 -7 60 -15 72 -36 56z"/>
<path d="M3645 3071 c-20 -4 -26 -9 -18 -14 11 -7 53 7 53 18 0 3 -1 4 -2 4
-2 -1 -16 -4 -33 -8z"/>
<path d="M3460 3059 c0 -5 5 -7 10 -4 6 3 10 8 10 11 0 2 -4 4 -10 4 -5 0 -10
-5 -10 -11z"/>
<path d="M2325 3024 c4 -22 10 -43 15 -49 4 -5 13 -29 19 -53 15 -53 34 -45
26 10 -9 55 -20 83 -46 109 l-22 22 8 -39z"/>
<path d="M2580 3053 c0 -5 9 -21 20 -38 24 -36 26 -26 5 15 -15 29 -25 38 -25
23z"/>
<path d="M2517 3029 c-22 -25 -33 -74 -18 -83 7 -5 11 1 11 14 0 12 5 18 10
15 6 -4 10 7 10 25 0 50 18 25 25 -35 4 -31 12 -58 17 -61 6 -4 8 2 3 15 -9
29 11 27 31 -4 9 -14 19 -24 21 -21 7 7 -56 122 -76 140 -15 14 -19 14 -34 -5z"/>
<path d="M2641 3034 c0 -11 3 -14 6 -6 3 7 2 16 -1 19 -3 4 -6 -2 -5 -13z"/>
<path d="M3630 3015 c-7 -8 -8 -15 -2 -15 5 0 15 7 22 15 7 8 8 15 2 15 -5 0
-15 -7 -22 -15z"/>
<path d="M830 2985 c0 -8 4 -15 10 -15 5 0 7 7 4 15 -4 8 -8 15 -10 15 -2 0
-4 -7 -4 -15z"/>
<path d="M669 2989 c-7 -53 -4 -79 7 -75 10 4 11 0 2 -20 -6 -13 -9 -26 -7
-29 10 -9 76 8 100 26 l24 19 -24 0 c-24 0 -24 1 -6 14 19 13 17 15 -18 21
-21 4 -47 17 -58 28 -10 11 -19 19 -20 16z"/>
<path d="M2528 2890 c2 -33 8 -60 13 -60 10 0 11 29 3 83 -10 58 -19 44 -16
-23z"/>
<path d="M825 2920 c-3 -5 1 -10 9 -10 8 0 18 5 21 10 3 6 -1 10 -9 10 -8 0
-18 -4 -21 -10z"/>
<path d="M2501 2874 c0 -11 3 -14 6 -6 3 7 2 16 -1 19 -3 4 -6 -2 -5 -13z"/>
<path d="M3354 2868 l-19 -23 25 20 c14 11 27 21 29 22 2 2 0 3 -6 3 -5 0 -18
-10 -29 -22z"/>
<path d="M777 2870 c-20 -4 -53 -14 -72 -23 -19 -10 -51 -24 -69 -33 -19 -9
-42 -14 -50 -11 -25 10 -19 -2 29 -55 25 -28 45 -58 45 -68 0 -11 5 -22 11
-26 9 -5 10 8 7 45 -7 76 15 60 26 -18 5 -42 11 -60 18 -53 11 11 -9 119 -24
128 -4 3 -8 17 -8 31 0 26 0 26 21 7 12 -10 27 -31 35 -46 13 -25 19 -27 64
-25 33 1 50 6 50 15 0 7 12 24 28 38 15 14 20 22 12 18 -20 -11 -50 -6 -67 12
-17 16 -13 17 20 5 35 -14 50 0 31 27 -8 12 -22 22 -30 22 -8 0 -12 5 -9 10 7
11 -12 11 -68 0z m-112 -70 c-3 -5 -11 -10 -16 -10 -6 0 -7 5 -4 10 3 6 11 10
16 10 6 0 7 -4 4 -10z"/>
<path d="M590 2840 c0 -5 7 -7 15 -4 8 4 15 8 15 10 0 2 -7 4 -15 4 -8 0 -15
-4 -15 -10z"/>
<path d="M2605 2813 c7 -42 35 -81 35 -50 0 22 -27 87 -36 87 -3 0 -3 -17 1
-37z"/>
<path d="M2520 2765 c0 -27 3 -45 7 -41 7 7 5 77 -2 85 -3 2 -5 -17 -5 -44z"/>
<path d="M3225 2801 c-3 -6 -21 -18 -40 -25 -19 -8 -36 -24 -40 -38 -4 -12
-16 -34 -26 -47 -20 -25 -26 -56 -9 -46 13 8 13 -1 -5 -59 -17 -56 -21 -251
-5 -261 6 -3 10 -23 10 -44 0 -63 34 -100 120 -135 68 -27 86 -30 195 -30 110
-1 125 1 175 25 155 75 214 229 148 384 -26 59 -26 60 -6 67 32 12 18 42 -22
48 -46 8 -63 19 -56 36 3 8 -1 14 -9 14 -7 0 -15 7 -17 16 -4 20 -60 40 -156
55 -85 14 -115 5 -218 -68 -76 -52 -110 -92 -124 -143 -14 -52 -35 -54 -25 -3
11 59 50 126 111 192 31 34 52 61 46 61 -6 0 -17 3 -25 6 -8 3 -18 0 -22 -5z
m297 -228 c23 -21 23 -36 -1 -57 -35 -31 -101 6 -85 48 10 27 60 33 86 9z
m158 -98 c0 -8 4 -15 9 -15 16 0 23 -40 10 -56 -14 -17 -22 -12 -26 18 -2 12
-8 27 -14 34 -11 14 -4 34 12 34 5 0 9 -7 9 -15z m-357 -37 c14 -11 14 -20 5
-60 l-11 -48 -44 0 c-49 0 -51 4 -27 73 17 50 42 61 77 35z m385 -81 c-7 -14
-13 -17 -16 -9 -6 19 6 44 18 37 7 -4 6 -14 -2 -28z m-15 -47 c-3 -11 -9 -20
-14 -20 -14 0 -11 28 4 33 6 3 13 6 14 6 0 1 -1 -8 -4 -19z m-398 -50 c3 -5 1
-10 -4 -10 -6 0 -11 5 -11 10 0 6 2 10 4 10 3 0 8 -4 11 -10z m55 -50 c0 -5
-5 -10 -11 -10 -5 0 -7 5 -4 10 3 6 8 10 11 10 2 0 4 -4 4 -10z m55 -30 c3 -5
-1 -10 -10 -10 -9 0 -13 5 -10 10 3 6 8 10 10 10 2 0 7 -4 10 -10z"/>
<path d="M2572 2735 c0 -16 2 -22 5 -12 2 9 2 23 0 30 -3 6 -5 -1 -5 -18z"/>
<path d="M880 2740 c-12 -7 -11 -10 5 -16 11 -4 23 -9 27 -11 3 -1 4 6 1 17
-6 22 -11 24 -33 10z"/>
<path d="M3087 2714 c-4 -4 -7 -14 -7 -23 0 -11 3 -12 11 -4 6 6 10 16 7 23
-2 6 -7 8 -11 4z"/>
<path d="M2610 2676 c0 -9 5 -16 10 -16 6 0 10 4 10 9 0 6 -4 13 -10 16 -5 3
-10 -1 -10 -9z"/>
<path d="M4745 2680 c3 -5 8 -10 11 -10 2 0 4 5 4 10 0 6 -5 10 -11 10 -5 0
-7 -4 -4 -10z"/>
<path d="M4307 2659 c7 -7 15 -10 18 -7 3 3 -2 9 -12 12 -14 6 -15 5 -6 -5z"/>
<path d="M4220 2609 c-7 -11 -10 -23 -7 -25 2 -2 9 7 15 21 14 30 7 33 -8 4z"/>
<path d="M1855 2494 c-66 -17 -119 -39 -138 -58 -13 -13 -30 -27 -38 -32 -23
-13 -34 -64 -14 -64 20 0 19 -3 -10 -46 -90 -132 -62 -287 70 -384 76 -56 96
-65 106 -49 6 10 9 11 9 1 0 -6 3 -11 8 -10 4 1 19 -2 33 -6 70 -20 264 55
354 137 40 36 48 49 52 88 5 41 0 57 -43 140 -30 59 -66 112 -97 142 -49 48
-51 64 -3 26 30 -23 34 -15 9 21 -23 34 -41 48 -89 69 -41 19 -171 34 -209 25z
m180 -64 c13 -6 1 -7 -35 -3 -30 3 -57 7 -59 9 -9 8 75 2 94 -6z m-50 -49 c3
-5 1 -12 -4 -15 -12 -8 -41 3 -41 15 0 12 37 12 45 0z m55 -23 c0 -6 -7 -7
-16 -4 -9 3 -18 6 -20 6 -3 0 -3 4 1 10 7 11 35 2 35 -12z m25 -18 c3 -5 1
-10 -4 -10 -6 0 -11 5 -11 10 0 6 2 10 4 10 3 0 8 -4 11 -10z m-15 -30 c43
-22 47 -29 28 -48 -28 -28 -98 -6 -98 32 0 42 14 45 70 16z m65 -10 c10 -11
15 -20 11 -20 -4 0 -16 9 -28 20 -12 11 -17 20 -11 20 5 0 18 -9 28 -20z
m-369 0 c29 -12 24 -25 -9 -25 -15 0 -21 -5 -19 -16 1 -9 -10 -28 -25 -43 -21
-22 -25 -31 -16 -44 8 -13 5 -26 -10 -55 -21 -40 -17 -58 8 -37 12 10 15 10
15 -4 0 -9 -7 -16 -15 -16 -21 0 -19 -5 13 -38 15 -16 43 -32 61 -35 18 -4 45
-16 61 -27 15 -11 38 -20 49 -20 24 0 29 -31 8 -48 -10 -9 -19 -7 -35 4 -20
13 -21 13 -16 -1 9 -24 -4 -18 -65 28 -128 95 -158 225 -77 336 21 28 39 51
41 51 2 0 16 -5 31 -10z m116 -112 c12 -10 14 -23 9 -58 -6 -44 -7 -45 -41
-45 -34 0 -35 1 -33 38 4 67 30 93 65 65z m295 -10 c-3 -8 -6 -5 -6 6 -1 11 2
17 5 13 3 -3 4 -12 1 -19z m5 -73 c-4 -25 -13 -31 -25 -18 -6 5 19 43 28 43 1
0 0 -11 -3 -25z m-12 -70 c0 -8 -9 -15 -20 -15 -20 0 -26 11 -13 23 12 13 33
7 33 -8z m-56 -62 c-4 -16 -13 -36 -19 -46 -11 -16 -13 -16 -19 -2 -6 18 -2
29 22 58 21 23 23 22 16 -10z m-56 -54 c3 -17 -59 -41 -102 -40 -35 1 -40 5
-32 27 5 13 9 15 18 6 18 -18 53 -14 73 8 20 22 38 22 43 -1z"/>
<path d="M1760 1950 c-9 -6 -10 -10 -3 -10 6 0 15 5 18 10 8 12 4 12 -15 0z"/>
<path d="M4070 2231 c-14 -26 -13 -31 6 -31 8 0 12 5 9 10 -4 6 -1 17 5 25 8
10 9 15 2 15 -6 0 -16 -9 -22 -19z"/>
<path d="M3992 2207 c-5 -7 -13 -19 -17 -27 -7 -12 -5 -12 11 1 10 9 26 18 33
21 12 4 12 5 -1 11 -9 3 -21 0 -26 -6z"/>
<path d="M225 2160 c-7 -12 2 -30 16 -30 5 0 9 9 9 20 0 21 -15 27 -25 10z"/>
<path d="M1365 2140 c3 -5 8 -10 11 -10 2 0 4 5 4 10 0 6 -5 10 -11 10 -5 0
-7 -4 -4 -10z"/>
<path d="M3798 2133 c6 -2 18 -2 25 0 6 3 1 5 -13 5 -14 0 -19 -2 -12 -5z"/>
<path d="M1285 2096 c16 -24 45 -42 45 -28 0 16 -32 52 -46 52 -12 0 -12 -3 1
-24z"/>
<path d="M169 2064 c-8 -23 -12 -25 -19 -14 -6 10 -10 11 -10 3 0 -7 9 -17 19
-23 26 -14 31 -13 25 5 -4 10 0 15 11 15 10 0 15 6 13 17 -5 28 -27 26 -39 -3z"/>
<path d="M3082 1985 c49 -48 63 -53 71 -31 6 15 -11 36 -28 36 -7 0 -20 9 -30
20 -10 11 -27 20 -39 20 -16 0 -12 -8 26 -45z"/>
<path d="M3783 1924 c-17 -13 -17 -13 2 -13 11 0 29 4 39 8 19 7 19 8 -2 13
-11 3 -29 0 -39 -8z"/>
<path d="M3082 1914 c-13 -9 -34 -14 -49 -11 -20 4 -24 1 -20 -14 3 -11 0 -19
-7 -19 -8 0 -11 -12 -8 -36 3 -20 7 -31 11 -25 9 14 51 2 51 -15 0 -8 6 -30
14 -49 13 -31 16 -33 39 -22 32 15 73 85 58 100 -9 9 -17 8 -33 -2 -18 -11
-20 -11 -15 3 4 10 1 19 -8 22 -8 4 -15 11 -15 17 0 7 4 7 12 -1 7 -7 16 -12
20 -12 13 0 9 28 -6 37 -8 4 -15 16 -17 26 -4 16 -6 16 -27 1z m-25 -66 c-3
-8 -6 -5 -6 6 -1 11 2 17 5 13 3 -3 4 -12 1 -19z m43 -78 c0 -5 -4 -10 -10
-10 -5 0 -10 5 -10 10 0 6 5 10 10 10 6 0 10 -4 10 -10z"/>
<path d="M3151 1917 c-6 -8 -8 -16 -5 -20 10 -9 34 4 34 19 0 18 -14 18 -29 1z"/>
<path d="M4710 1858 c0 -4 -16 -10 -35 -14 -53 -10 -31 -27 25 -19 27 4 56 2
67 -4 17 -9 19 -7 15 18 -3 23 -8 27 -38 27 -19 0 -34 -3 -34 -8z"/>
<path d="M4805 1848 c1 -13 6 -22 11 -20 13 3 11 35 -2 39 -6 2 -10 -7 -9 -19z"/>
<path d="M3585 1819 c-11 -17 1 -21 15 -4 8 9 8 15 2 15 -6 0 -14 -5 -17 -11z"/>
<path d="M3548 1813 c7 -3 16 -2 19 1 4 3 -2 6 -13 5 -11 0 -14 -3 -6 -6z"/>
<path d="M4614 1789 c-8 -13 -5 -15 34 -22 27 -6 31 -4 20 6 -20 20 -47 27
-54 16z"/>
<path d="M4705 1769 c-9 -14 -4 -18 34 -29 25 -7 33 -6 38 6 6 17 30 19 36 2
3 -7 6 -4 6 7 1 16 -5 20 -27 19 -16 0 -34 -4 -40 -8 -7 -4 -12 -2 -12 3 0 14
-27 14 -35 0z"/>
<path d="M3180 1759 c0 -5 5 -7 10 -4 6 3 10 8 10 11 0 2 -4 4 -10 4 -5 0 -10
-5 -10 -11z"/>
<path d="M3138 1693 c-24 -33 -49 -48 -57 -35 -4 6 -34 14 -66 16 -48 3 -71
-1 -113 -20 -29 -13 -77 -27 -105 -30 -58 -7 -68 -11 -48 -23 9 -6 12 -19 8
-36 -4 -21 1 -33 21 -50 25 -21 25 -24 14 -64 -7 -22 -17 -41 -22 -41 -6 0
-10 -7 -10 -15 0 -8 7 -15 15 -15 8 0 15 -9 15 -20 0 -13 10 -24 26 -30 14 -6
22 -15 19 -20 -4 -6 -1 -17 5 -25 9 -11 10 -18 1 -29 -6 -7 -9 -20 -6 -28 7
-19 -34 -71 -51 -64 -7 3 -16 -4 -19 -15 -4 -10 -10 -19 -15 -19 -5 0 -25 -15
-44 -34 -21 -19 -39 -29 -43 -24 -3 6 -9 4 -15 -5 -5 -9 -15 -14 -23 -11 -10
4 -18 -4 -25 -22 -14 -37 -6 -71 17 -69 31 2 43 15 43 46 0 16 5 29 10 29 6 0
10 -7 10 -15 0 -21 13 -19 44 10 14 13 26 20 26 15 0 -6 7 -10 15 -10 8 0 15
5 15 11 0 6 7 9 15 5 9 -3 20 3 27 14 15 23 38 26 57 8 10 -11 11 -10 5 5 -4
13 -2 16 9 11 8 -3 18 -1 21 5 7 11 56 -33 56 -51 0 -7 5 -7 14 1 10 8 16 9
21 1 3 -5 11 -10 17 -10 6 0 3 11 -6 25 -15 23 -9 35 8 18 8 -8 86 -12 86 -5
0 3 -12 15 -27 28 -15 13 -24 26 -20 30 3 4 26 -14 51 -39 36 -38 132 -97 155
-97 9 0 31 51 31 69 0 9 -5 23 -10 31 -8 11 -9 7 -4 -15 l6 -30 -35 38 c-20
20 -44 37 -54 37 -11 0 -24 5 -30 11 -8 8 -13 8 -17 0 -5 -7 -13 -7 -26 -1
-11 6 -29 14 -39 20 -14 6 -21 6 -24 -3 -3 -8 -12 -3 -25 13 -18 21 -21 22
-22 8 0 -10 -3 -18 -6 -18 -4 0 -13 8 -20 18 -12 15 -15 15 -24 2 -8 -13 -10
-13 -10 3 0 9 -7 17 -15 17 -8 0 -15 7 -15 16 0 8 -4 13 -9 10 -10 -7 -21 27
-21 66 0 18 16 43 50 80 28 29 63 72 78 95 15 24 35 43 45 43 10 0 17 8 17 20
0 10 11 29 24 42 29 26 48 71 40 92 -3 8 -1 17 5 21 6 3 11 10 11 16 0 15 -18
10 -32 -8z m-188 -67 c0 -3 -4 -8 -10 -11 -5 -3 -10 -1 -10 4 0 6 5 11 10 11
6 0 10 -2 10 -4z m40 -531 c0 -12 -29 -3 -34 10 -4 13 -2 14 14 5 11 -6 20
-13 20 -15z m170 5 c9 -16 8 -18 -5 -14 -8 4 -15 12 -15 20 0 20 7 17 20 -6z
m94 -55 c11 -8 15 -15 10 -15 -6 0 -19 7 -30 15 -10 8 -14 14 -9 14 6 0 19 -6
29 -14z m-610 -41 c3 -8 2 -12 -4 -9 -6 3 -10 10 -10 16 0 14 7 11 14 -7z"/>
<path d="M4840 1681 c0 -5 -6 -8 -12 -7 -7 0 -15 -3 -18 -9 -3 -5 6 -11 20
-13 20 -2 26 2 27 18 1 11 -2 20 -8 20 -5 0 -9 -4 -9 -9z"/>
<path d="M4685 1670 c3 -5 18 -10 33 -10 21 0 24 2 12 10 -20 13 -53 13 -45 0z"/>
<path d="M4795 1623 c-27 -15 -32 -32 -13 -51 9 -9 4 -14 -21 -23 -28 -10 -34
-22 -13 -25 4 0 20 -4 36 -9 29 -8 29 -8 7 -17 -12 -4 -34 -5 -48 -1 -22 5
-25 3 -20 -11 4 -10 7 -22 7 -27 0 -5 10 -9 23 -9 21 -1 22 -1 3 -15 -19 -14
-18 -15 15 -15 l34 0 -25 -14 c-18 -9 -29 -10 -40 -2 -42 30 -63 38 -70 25 -5
-6 -15 -9 -25 -6 -10 4 -14 3 -9 -4 3 -6 15 -9 25 -6 10 3 19 2 21 -2 2 -5 32
-17 68 -28 148 -47 244 -88 338 -145 l32 -20 -1 129 c-1 70 -4 118 -6 106 -6
-29 -23 -30 -23 -2 0 12 -5 19 -12 16 -7 -2 -12 -16 -10 -31 2 -18 -2 -26 -13
-26 -8 0 -15 -6 -15 -14 0 -33 -19 -23 -39 19 -22 47 -51 61 -51 24 0 -14 -5
-19 -17 -17 -10 2 -16 11 -14 19 2 8 6 22 8 32 3 10 0 17 -9 17 -27 0 -39 22
-23 40 14 16 13 20 -14 49 -17 18 -28 38 -25 46 7 17 -25 16 -61 -2z m186
-216 c-6 -8 -7 -17 -3 -21 4 -4 -1 -13 -11 -21 -16 -12 -15 -14 15 -34 42 -26
24 -27 -44 -1 -79 30 -85 35 -65 55 13 12 17 13 17 3 1 -9 4 -8 13 3 13 17 36
26 71 28 14 1 16 -2 7 -12z"/>
<path d="M2580 1551 c0 -5 5 -13 10 -16 6 -3 10 -2 10 4 0 5 -4 13 -10 16 -5
3 -10 2 -10 -4z"/>
<path d="M2653 1532 c-20 -2 -33 -9 -33 -17 0 -14 11 -18 70 -29 14 -3 35 -8
47 -12 30 -9 41 20 18 46 -17 18 -25 19 -102 12z"/>
<path d="M3743 1523 c9 -2 25 -2 35 0 9 3 1 5 -18 5 -19 0 -27 -2 -17 -5z"/>
<path d="M3835 1481 c194 -20 352 -67 475 -141 91 -55 105 -60 72 -29 l-22 20
20 29 c14 20 26 27 37 23 13 -5 15 -2 11 15 -5 17 -2 22 15 23 41 2 -122 37
-225 48 -57 7 -184 13 -283 16 -131 3 -158 2 -100 -4z"/>
<path d="M3721 1447 c-23 -23 -20 -25 199 -82 115 -31 307 -100 385 -139 62
-32 78 -33 35 -3 -35 23 -50 60 -23 55 33 -6 20 18 -25 46 -108 68 -195 96
-357 116 -142 18 -201 20 -214 7z m170 -44 c-8 -15 -10 -15 -11 -2 0 17 10 32
18 25 2 -3 -1 -13 -7 -23z"/>
<path d="M1890 1370 c0 -5 5 -10 11 -10 5 0 7 5 4 10 -3 6 -8 10 -11 10 -2 0
-4 -4 -4 -10z"/>
<path d="M3718 1360 c9 -10 51 -32 92 -49 229 -97 387 -199 515 -333 54 -56
96 -97 94 -91 -12 33 -130 168 -169 194 -25 16 -60 41 -79 54 l-34 25 27 0
c14 0 26 5 26 10 0 6 -5 10 -12 10 -6 0 -9 2 -6 5 3 3 17 1 31 -4 20 -8 27 -7
31 5 6 16 27 13 79 -11 15 -8 27 -10 27 -6 0 4 -48 31 -108 59 -135 64 -339
124 -494 146 -36 4 -37 4 -20 -14z m49 -6 c-3 -3 -12 -4 -19 -1 -8 3 -5 6 6 6
11 1 17 -2 13 -5z"/>
<path d="M4725 1346 c17 -7 32 -11 35 -9 8 7 -24 23 -45 22 -15 0 -13 -3 10
-13z"/>
<path d="M4390 1340 c-9 -6 -10 -10 -3 -10 6 0 15 5 18 10 8 12 4 12 -15 0z"/>
<path d="M4785 1328 c11 -7 25 -13 30 -14 6 -1 18 -5 28 -9 9 -4 17 -4 17 -1
0 7 -68 36 -84 36 -6 0 -2 -6 9 -12z"/>
<path d="M3670 1325 c0 -2 12 -11 28 -19 l27 -15 -25 -2 c-14 -1 -31 -2 -38
-2 -9 1 -8 -5 5 -20 17 -19 15 -19 -21 3 -61 37 -32 5 51 -57 68 -50 176 -139
242 -200 14 -12 28 -20 33 -17 12 8 10 38 -4 53 -11 11 -6 12 25 9 30 -3 36
-1 32 10 -4 12 -2 12 9 3 19 -16 46 -4 39 17 -5 14 -3 15 8 5 15 -15 43 -18
34 -4 -3 5 3 11 12 13 38 7 -224 149 -373 203 -74 26 -84 28 -84 20z"/>
<path d="M2811 1274 c0 -11 3 -14 6 -6 3 7 2 16 -1 19 -3 4 -6 -2 -5 -13z"/>
<path d="M1388 1273 c7 -3 16 -2 19 1 4 3 -2 6 -13 5 -11 0 -14 -3 -6 -6z"/>
<path d="M2777 1266 c-6 -16 2 -28 14 -20 12 7 11 34 0 34 -5 0 -11 -6 -14
-14z"/>
<path d="M4934 1271 c3 -4 19 -14 35 -21 32 -13 32 -31 -1 -63 -10 -10 -18
-22 -18 -28 0 -5 -11 -15 -25 -21 -14 -6 -25 -19 -25 -29 0 -11 -11 -20 -30
-24 -16 -4 -32 -11 -35 -16 -4 -5 -17 -9 -31 -9 -31 0 -67 -36 -61 -60 3 -12
0 -17 -8 -13 -10 3 -12 -2 -8 -19 5 -22 5 -23 -10 -3 -8 11 -13 24 -10 29 4 5
1 6 -5 2 -9 -5 -9 -13 -1 -29 11 -21 10 -21 -15 2 -46 43 -38 16 13 -42 27
-30 68 -83 91 -116 43 -61 60 -79 40 -41 -7 14 -7 20 0 20 5 0 9 3 9 8 -4 24
2 34 14 24 7 -6 23 -9 36 -5 17 4 23 1 28 -16 6 -23 19 -28 25 -10 2 7 16 4
38 -10 47 -28 64 -27 58 4 -6 29 0 32 18 8 7 -10 16 -15 20 -11 4 4 1 15 -7
25 -13 17 -13 17 12 1 l27 -17 4 47 c2 26 6 115 7 197 l2 150 -53 32 c-30 17
-66 35 -81 38 -15 4 -30 11 -33 16 -3 5 -10 9 -15 9 -6 0 -8 -4 -5 -9z m-166
-367 c18 -8 34 -19 37 -24 9 -14 -52 10 -66 26 -15 18 -9 18 29 -2z"/>
<path d="M3571 1254 c-1 -6 6 -17 14 -24 8 -7 15 -9 15 -5 0 4 7 2 15 -5 8 -7
12 -17 9 -22 -4 -5 10 -26 29 -46 60 -63 198 -235 224 -279 14 -24 29 -41 34
-38 4 3 -14 37 -41 75 -44 62 -55 91 -22 58 9 -9 12 -9 12 2 0 9 9 5 25 -10
42 -39 28 -8 -22 49 -67 77 -243 231 -264 231 -10 0 -20 6 -22 13 -4 7 -6 8
-6 1z"/>
<path d="M3600 1210 c0 -5 5 -10 11 -10 5 0 7 5 4 10 -3 6 -8 10 -11 10 -2 0
-4 -4 -4 -10z"/>
<path d="M3559 1183 c40 -80 55 -109 61 -113 13 -10 127 -158 149 -193 13 -21
27 -34 33 -31 7 4 8 2 4 -4 -4 -7 0 -22 8 -34 15 -20 15 -20 9 18 -16 100 -44
147 -170 281 -83 89 -113 113 -94 76z m202 -240 c13 -16 12 -17 -3 -4 -10 7
-18 15 -18 17 0 8 8 3 21 -13z m39 -63 c0 -5 -2 -10 -4 -10 -3 0 -8 5 -11 10
-3 6 -1 10 4 10 6 0 11 -4 11 -10z"/>
<path d="M3470 1180 c0 -6 5 -10 10 -10 6 0 10 -6 10 -14 0 -8 16 -31 36 -53
19 -21 73 -92 119 -158 46 -66 91 -129 99 -140 l16 -20 -7 20 -6 20 23 -20 24
-20 -24 40 c-54 92 -71 115 -132 187 -34 41 -80 95 -102 120 -38 46 -66 66
-66 48z"/>
<path d="M4400 1176 c0 -2 7 -7 16 -10 8 -3 12 -2 9 4 -6 10 -25 14 -25 6z"/>
<path d="M3390 1156 c0 -2 8 -10 18 -17 15 -13 16 -12 3 4 -13 16 -21 21 -21
13z"/>
<path d="M4460 1135 c7 -9 15 -13 17 -11 7 7 -7 26 -19 26 -6 0 -6 -6 2 -15z"/>
<path d="M3460 1124 c0 -3 9 -18 20 -34 11 -15 17 -30 13 -34 -3 -3 1 -6 10
-6 9 0 18 -4 21 -9 4 -5 -3 -7 -15 -4 -11 3 -23 13 -26 22 -8 21 -34 51 -45
51 -21 0 144 -204 198 -245 22 -16 44 -36 51 -45 22 -28 13 0 -12 38 -51 76
-60 89 -133 180 -70 87 -82 100 -82 86z"/>
<path d="M2910 1060 c-11 -7 -11 -10 -2 -10 7 0 24 -11 38 -25 31 -31 45 -33
16 -2 -12 13 -22 29 -22 35 0 14 -10 15 -30 2z"/>
<path d="M3360 1056 c0 -16 -2 -17 -17 -5 -15 12 -16 12 -10 -4 4 -10 7 -26 7
-35 0 -14 2 -14 9 -3 7 11 13 7 25 -15 l17 -29 -6 40 c-8 47 -24 82 -25 51z"/>
<path d="M3885 1020 c27 -30 56 -68 66 -85 12 -19 19 -24 19 -14 0 9 -30 48
-66 85 -50 52 -54 55 -19 14z"/>
<path d="M3414 1016 c7 -23 11 -47 8 -54 -2 -7 1 -19 8 -27 9 -11 9 -27 0 -69
-6 -31 -16 -58 -21 -61 -5 -4 -9 -2 -9 3 0 6 -15 10 -34 10 l-34 0 19 -33 c17
-29 18 -33 4 -39 -13 -5 -14 -10 -4 -28 17 -33 59 -70 59 -53 0 7 -4 15 -9 17
-5 2 -12 19 -16 38 -7 31 -6 33 9 21 9 -7 16 -19 16 -25 0 -12 50 -46 67 -46
5 0 8 14 5 30 -3 18 0 30 7 30 6 0 11 -4 11 -10 0 -5 5 -10 11 -10 6 0 9 9 6
20 -3 11 -1 23 4 26 5 3 9 -6 9 -20 0 -14 5 -28 10 -31 6 -4 8 -11 5 -16 -4
-5 -1 -9 4 -9 6 0 11 4 11 9 0 5 7 17 16 26 13 13 19 14 25 4 12 -20 23 -3 23
36 0 35 10 46 20 23 3 -7 4 -2 3 12 -1 14 -23 48 -48 75 -26 28 -74 82 -107
121 -71 83 -97 93 -78 30z m101 -94 c-3 -3 -6 -3 -8 -1 -44 58 -49 63 -43 42
4 -13 3 -23 -2 -23 -11 0 -23 24 -27 55 -2 11 -7 29 -11 40 -4 11 16 -9 44
-44 29 -35 50 -67 47 -69z m-35 -14 c0 -5 -7 -16 -15 -24 -12 -13 -14 -11 -12
14 1 19 7 28 15 25 6 -3 12 -9 12 -15z m10 -60 c0 -16 -3 -19 -11 -11 -6 6 -8
16 -5 22 11 17 16 13 16 -11z m15 -66 c0 -18 -20 -15 -23 4 -3 10 1 15 10 12
7 -3 13 -10 13 -16z m102 -34 c-3 -8 -6 -5 -6 6 -1 11 2 17 5 13 3 -3 4 -12 1
-19z m-41 -26 c-18 -16 -19 -16 -12 1 3 10 6 24 6 30 0 8 4 7 12 -1 10 -9 8
-16 -6 -30z"/>
<path d="M4206 1047 c3 -9 12 -18 20 -21 23 -9 16 -24 -10 -19 -48 9 -36 -16
20 -44 32 -15 59 -36 62 -45 5 -20 17 -23 27 -9 3 6 -4 15 -15 21 -11 6 -20
16 -20 22 0 6 9 3 20 -7 11 -10 20 -14 20 -8 0 15 -50 54 -60 48 -6 -3 -8 0
-6 7 3 7 -11 26 -30 42 -19 15 -32 21 -28 13z"/>
<path d="M3310 1034 c0 -8 5 -12 10 -9 6 4 8 11 5 16 -9 14 -15 11 -15 -7z"/>
<path d="M4592 1034 c10 -10 20 -16 22 -13 3 3 -5 11 -17 18 -21 13 -21 12 -5
-5z"/>
<path d="M3124 1016 c44 -40 66 -56 66 -49 0 4 -15 19 -32 35 l-33 29 31 -15
c37 -18 58 -41 49 -56 -3 -5 -2 -10 3 -10 5 0 16 -18 25 -40 8 -22 11 -40 6
-40 -5 0 -9 6 -9 13 0 13 -31 47 -42 47 -4 0 -1 -13 5 -30 6 -16 15 -30 19
-30 4 0 8 -10 8 -22 0 -12 3 -19 6 -15 4 3 13 0 21 -8 20 -21 30 -19 37 8 4
16 8 19 15 9 9 -16 25 63 16 79 -4 5 -1 9 6 9 10 0 10 3 2 11 -9 9 -16 8 -27
-4 -10 -10 -12 -18 -6 -22 13 -8 13 -35 1 -35 -5 0 -12 13 -16 29 -3 16 -12
32 -20 35 -8 2 -19 15 -26 28 -11 22 -11 22 7 7 24 -20 54 -31 54 -20 0 14
-134 79 -163 79 l-27 0 24 -22z"/>
<path d="M2557 984 c-4 -4 -7 -14 -7 -23 0 -11 3 -12 11 -4 6 6 10 16 7 23 -2
6 -7 8 -11 4z"/>
<path d="M3990 955 c13 -14 25 -25 27 -25 9 0 -33 49 -41 50 -5 0 1 -11 14
-25z"/>
<path d="M4140 971 c0 -13 41 -41 60 -41 10 1 6 9 -13 25 -29 26 -47 32 -47
16z"/>
<path d="M3860 950 c0 -5 5 -10 10 -10 6 0 10 5 10 10 0 6 -4 10 -10 10 -5 0
-10 -4 -10 -10z"/>
<path d="M3150 940 c0 -5 5 -10 11 -10 5 0 7 5 4 10 -3 6 -8 10 -11 10 -2 0
-4 -4 -4 -10z"/>
<path d="M4641 930 c7 -14 19 -31 28 -38 14 -12 13 -13 -6 -9 -13 3 -25 1 -28
-4 -3 -4 -13 -5 -23 -2 -15 6 -15 5 1 -12 15 -14 21 -15 27 -5 6 10 13 8 30
-8 12 -11 28 -18 35 -15 8 2 21 -7 30 -21 15 -22 15 -29 4 -44 -13 -15 -12
-16 4 -3 15 12 19 12 32 -5 8 -10 15 -23 15 -28 0 -5 3 -7 6 -4 12 12 -37 87
-101 153 -36 39 -61 59 -54 45z"/>
<path d="M3115 918 c11 -15 24 -28 28 -28 15 0 1 23 -23 39 l-24 16 19 -27z"/>
<path d="M3921 913 c7 -12 15 -20 18 -17 3 2 -3 12 -13 22 -17 16 -18 16 -5
-5z"/>
<path d="M4333 912 c-1 -10 11 -25 28 -34 16 -10 28 -21 27 -26 -2 -4 9 -23
25 -41 55 -66 11 16 -49 92 -26 32 -29 33 -31 9z"/>
<path d="M2940 908 c0 -9 5 -20 10 -23 13 -8 13 5 0 25 -8 13 -10 13 -10 -2z"/>
<path d="M3080 900 c6 -11 15 -20 20 -20 4 0 13 -15 19 -32 12 -35 58 -95 66
-86 10 10 -19 62 -52 97 -18 18 -33 37 -33 41 0 4 -7 10 -15 14 -13 4 -14 2
-5 -14z"/>
<path d="M3980 914 c0 -12 11 -26 35 -44 15 -11 14 -7 -5 15 -14 17 -26 32
-27 34 -2 2 -3 0 -3 -5z"/>
<path d="M3390 900 c0 -5 5 -10 11 -10 5 0 7 5 4 10 -3 6 -8 10 -11 10 -2 0
-4 -4 -4 -10z"/>
<path d="M4079 840 c23 -36 49 -80 58 -97 9 -18 21 -33 26 -33 5 0 4 7 -3 15
-6 8 -9 18 -6 24 3 5 3 11 -1 13 -5 1 -25 29 -46 60 -21 31 -46 63 -55 70 -8
7 4 -16 27 -52z"/>
<path d="M3845 853 c9 -21 25 -47 36 -58 14 -14 11 -3 -11 38 -36 65 -48 75
-25 20z"/>
<path d="M4480 876 c0 -9 5 -16 10 -16 6 0 10 4 10 9 0 6 -4 13 -10 16 -5 3
-10 -1 -10 -9z"/>
<path d="M4000 855 c0 -5 5 -17 10 -25 5 -8 10 -10 10 -5 0 6 -5 17 -10 25 -5
8 -10 11 -10 5z"/>
<path d="M4190 855 c0 -5 53 -80 80 -112 5 -7 10 -17 10 -23 0 -6 9 -24 21
-39 20 -27 25 -28 87 -26 37 2 69 3 71 4 2 1 -4 10 -14 21 -23 26 -11 26 26
-1 34 -24 36 -17 8 31 -11 19 -17 25 -14 13 5 -18 2 -20 -15 -16 -11 3 -20 10
-20 17 0 6 -4 5 -9 -3 -5 -7 -14 -10 -20 -7 -12 8 -15 27 -3 23 4 -1 7 3 7 8
0 6 -5 9 -12 9 -7 -1 -35 18 -64 42 -56 49 -89 69 -89 56 0 -4 16 -23 35 -42
19 -19 35 -40 35 -47 0 -7 4 -13 8 -13 11 0 72 -55 72 -64 0 -14 -93 59 -114
90 -21 32 -86 91 -86 79z"/>
<path d="M4436 850 c4 -8 16 -28 27 -43 17 -25 21 -27 34 -14 18 18 8 41 -14
33 -8 -4 -23 4 -35 16 -11 13 -16 16 -12 8z"/>
<path d="M4040 832 c6 -13 14 -21 18 -18 3 4 -2 14 -12 24 -18 16 -18 16 -6
-6z"/>
<path d="M3084 800 c4 -19 8 -42 9 -50 4 -23 17 -40 29 -40 18 0 -1 83 -24
105 l-20 20 6 -35z"/>
<path d="M3973 801 c-10 -15 -7 -22 13 -40 27 -24 30 -17 11 27 -12 28 -14 30
-24 13z"/>
<path d="M4694 808 c-4 -7 -4 -10 1 -6 4 4 14 3 22 -4 11 -8 12 -7 7 6 -7 19
-20 21 -30 4z"/>
<path d="M4020 805 c0 -14 31 -77 35 -73 6 5 -22 78 -30 78 -3 0 -5 -2 -5 -5z"/>
<path d="M4560 791 c0 -12 9 -20 25 -23 20 -4 25 -1 25 14 0 14 -5 18 -15 14
-8 -3 -15 -1 -15 4 0 6 -4 10 -10 10 -5 0 -10 -8 -10 -19z"/>
<path d="M4079 773 c12 -18 19 -33 16 -33 -4 0 3 -15 14 -34 23 -36 27 -56 11
-56 -5 0 -7 7 -4 15 4 8 2 15 -4 15 -5 0 -12 -11 -14 -25 -3 -14 -1 -23 6 -22
5 1 15 -8 21 -20 11 -26 30 -32 21 -7 -5 14 -4 15 9 4 18 -15 21 -44 3 -34 -7
4 3 -8 23 -27 19 -19 34 -40 31 -47 -6 -19 -21 -14 -48 15 -13 14 -27 24 -29
21 -3 -3 1 -11 10 -18 26 -22 16 -33 -12 -14 -46 29 -53 41 -53 83 0 23 -4 41
-9 41 -5 0 -7 -23 -4 -52 3 -29 1 -76 -4 -103 -10 -53 -7 -79 8 -70 4 3 21 -5
36 -19 15 -13 39 -34 53 -45 14 -11 19 -20 13 -21 -7 0 -13 -5 -13 -11 0 -7 9
-9 21 -6 19 5 21 2 16 -23 -6 -26 -3 -28 29 -34 19 -4 32 -11 29 -16 -5 -8
-12 -8 -50 0 -30 7 -25 -3 14 -26 34 -19 52 -23 75 -18 17 4 41 6 54 5 26 -3
30 20 7 39 -25 21 -12 35 28 32 20 -2 37 0 37 5 0 11 -63 53 -81 53 -8 0 -21
5 -29 11 -11 8 2 9 48 6 66 -5 77 3 37 29 -31 20 -23 36 13 28 l27 -5 -22 19
c-13 11 -23 25 -23 30 0 13 27 23 45 16 8 -4 15 -1 15 5 0 6 -20 16 -44 22
-25 6 -47 18 -50 26 -4 11 -1 13 14 8 11 -4 20 -2 20 4 0 5 -9 13 -20 16 -11
4 -20 15 -20 26 0 16 5 19 20 15 11 -3 30 -9 42 -12 16 -5 20 -3 15 9 -3 9 1
18 9 21 30 11 12 24 -38 28 -29 2 -55 1 -58 -2 -3 -3 -18 -11 -35 -19 -26 -11
-28 -14 -12 -23 14 -8 16 -13 6 -24 -16 -19 -29 -18 -29 4 0 14 -4 12 -20 -8
-22 -28 -25 -24 -10 16 9 22 8 29 -5 36 -8 5 -12 14 -9 20 4 6 3 8 -3 5 -5 -3
-17 10 -27 30 -27 58 -29 31 -1 -31 28 -64 34 -106 12 -87 -8 6 -20 30 -27 53
-15 53 -85 182 -108 200 -10 8 -8 1 7 -19z m37 -286 c14 5 14 3 2 -16 -12 -20
-14 -20 -25 -4 -7 9 -13 24 -13 32 1 14 2 13 11 -1 5 -10 16 -15 25 -11z m74
-29 c22 0 21 -1 -7 -10 -35 -11 -63 -5 -63 13 0 7 8 9 23 4 12 -4 33 -7 47 -7z"/>
<path d="M4640 774 c0 -8 5 -12 10 -9 6 3 10 10 10 16 0 5 -4 9 -10 9 -5 0
-10 -7 -10 -16z"/>
<path d="M3796 767 c3 -10 9 -15 12 -12 3 3 0 11 -7 18 -10 9 -11 8 -5 -6z"/>
<path d="M4705 769 c-4 -6 -5 -12 -2 -15 2 -3 7 2 10 11 7 17 1 20 -8 4z"/>
<path d="M3320 760 c0 -5 5 -10 11 -10 5 0 7 5 4 10 -3 6 -8 10 -11 10 -2 0
-4 -4 -4 -10z"/>
<path d="M3900 767 c0 -4 4 -15 9 -25 27 -54 51 -115 51 -130 1 -9 7 -30 15
-47 l15 -30 -6 35 c-10 60 -84 233 -84 197z"/>
<path d="M3945 760 c3 -5 8 -10 11 -10 2 0 4 5 4 10 0 6 -5 10 -11 10 -5 0 -7
-4 -4 -10z"/>
<path d="M3820 720 c6 -11 13 -20 16 -20 2 0 0 9 -6 20 -6 11 -13 20 -16 20
-2 0 0 -9 6 -20z"/>
<path d="M3960 736 c0 -5 11 -39 24 -76 14 -37 30 -105 38 -151 l13 -84 3 100
c4 118 -2 158 -26 176 -14 11 -15 11 -4 -1 14 -16 16 -30 4 -30 -4 0 -18 17
-30 38 -12 20 -22 33 -22 28z m67 -148 c-3 -8 -6 -5 -6 6 -1 11 2 17 5 13 3
-3 4 -12 1 -19z"/>
<path d="M4204 714 c3 -9 6 -20 6 -25 0 -4 7 -5 17 -2 11 5 14 3 8 -6 -8 -14
10 -31 33 -31 7 0 -1 17 -19 40 -33 41 -56 53 -45 24z"/>
<path d="M3882 666 c9 -29 14 -33 20 -22 6 11 3 23 -11 37 l-20 22 11 -37z"/>
<path d="M4520 698 c0 -14 23 -58 32 -58 4 0 8 3 8 8 -1 9 -39 59 -40 50z"/>
<path d="M4060 673 c0 -11 7 -20 15 -20 12 0 12 3 3 16 -7 9 -14 18 -15 20 -2
2 -3 -5 -3 -16z"/>
<path d="M3851 645 c1 -19 18 -51 18 -35 0 8 -4 22 -9 30 -5 8 -9 11 -9 5z"/>
<path d="M4260 626 c0 -2 7 -7 16 -10 8 -3 12 -2 9 4 -6 10 -25 14 -25 6z"/>
<path d="M4526 585 c11 -48 25 -76 18 -35 -4 19 -10 42 -15 50 -6 10 -7 5 -3
-15z"/>
<path d="M4565 583 c4 -10 9 -33 12 -51 4 -24 13 -36 31 -43 29 -11 37 -6 28
17 -4 9 -12 14 -21 10 -17 -6 -40 38 -31 60 3 7 -2 15 -11 18 -11 5 -13 2 -8
-11z"/>
<path d="M3595 540 c3 -5 8 -10 11 -10 2 0 4 5 4 10 0 6 -5 10 -11 10 -5 0 -7
-4 -4 -10z"/>
<path d="M3466 520 c8 -31 24 -50 24 -29 0 8 -7 24 -16 35 -14 18 -15 18 -8
-6z"/>
<path d="M3920 518 c0 -31 18 -47 31 -27 7 11 9 10 9 -3 0 -10 4 -18 10 -18
15 0 23 -70 13 -117 -6 -24 -7 -46 -3 -48 13 -8 20 24 20 97 0 63 -3 73 -25
94 -14 13 -25 20 -25 17 0 -4 -7 2 -15 13 -14 18 -14 18 -15 -8z"/>
<path d="M3690 501 c0 -21 13 -41 26 -41 17 0 17 10 0 33 -14 19 -26 22 -26 8z"/>
<path d="M3836 467 c3 -10 9 -15 12 -12 3 3 0 11 -7 18 -10 9 -11 8 -5 -6z"/>
<path d="M4552 450 c0 -14 2 -19 5 -12 2 6 2 18 0 25 -3 6 -5 1 -5 -13z"/>
<path d="M4697 461 c-26 -6 -27 -7 -13 -26 14 -18 15 -18 16 -2 0 9 7 17 15
17 8 0 15 5 15 10 0 6 -1 9 -2 9 -2 -1 -16 -4 -31 -8z"/>
<path d="M3397 439 c4 -13 9 -17 15 -11 11 11 3 32 -12 32 -4 0 -6 -9 -3 -21z"/>
<path d="M3758 449 c14 -5 20 -13 16 -20 -4 -8 -3 -9 5 -5 16 10 -5 36 -28 35
-10 0 -8 -3 7 -10z"/>
<path d="M3860 449 c0 -8 7 -24 15 -35 11 -14 14 -15 14 -4 0 8 -6 24 -14 34
-11 15 -15 16 -15 5z"/>
<path d="M3920 443 c-3 -69 0 -80 20 -68 6 4 8 15 5 26 -4 13 -1 21 11 26 16
6 16 7 -2 20 -24 18 -33 16 -34 -4z"/>
<path d="M4591 445 c0 -11 4 -29 9 -40 7 -17 9 -17 9 -3 1 11 6 15 16 12 8 -4
15 -1 15 5 0 6 -5 11 -11 11 -7 0 -18 8 -25 18 -13 16 -13 16 -13 -3z"/>
<path d="M3540 401 c0 -6 4 -13 10 -16 6 -3 7 1 4 9 -7 18 -14 21 -14 7z"/>
<path d="M3960 374 c-12 -32 -13 -47 -1 -40 8 6 21 66 14 66 -2 0 -8 -12 -13
-26z"/>
<path d="M3760 350 c12 -16 27 -30 33 -30 9 0 9 2 1 8 -6 4 -16 17 -23 30 -6
12 -16 22 -22 22 -6 0 -1 -13 11 -30z"/>
<path d="M4051 348 c-1 -14 -4 -33 -7 -42 -3 -9 -1 -16 5 -16 6 0 11 7 11 15
0 8 5 15 11 15 6 0 8 -7 5 -16 -4 -11 -1 -14 11 -12 25 5 27 25 3 33 -12 4
-25 16 -30 28 -8 21 -9 20 -9 -5z"/>
<path d="M5005 352 c-28 -23 -39 -53 -23 -65 9 -6 6 -7 -9 -4 -12 3 -30 -1
-40 -9 -15 -11 -16 -15 -4 -23 8 -5 20 -7 28 -4 7 3 13 0 13 -6 0 -6 7 -11 15
-11 8 0 15 5 15 10 0 6 7 10 15 10 13 0 20 -24 16 -52 0 -4 8 -10 19 -13 16
-5 17 -10 10 -30 -12 -31 2 -40 23 -14 22 25 21 31 -2 48 -11 8 -17 20 -14 27
2 6 0 15 -6 19 -17 10 -13 34 9 62 11 15 18 29 15 32 -4 3 -10 -1 -14 -8 -12
-19 -31 -4 -31 25 0 28 -8 30 -35 6z m35 -56 c0 -15 -18 -31 -26 -23 -7 7 7
37 17 37 5 0 9 -6 9 -14z"/>
<path d="M5112 300 c0 -14 2 -19 5 -12 2 6 2 18 0 25 -3 6 -5 1 -5 -13z"/>
<path d="M4918 303 c7 -3 16 -2 19 1 4 3 -2 6 -13 5 -11 0 -14 -3 -6 -6z"/>
<path d="M4430 281 c0 -5 10 -11 23 -15 36 -9 42 -7 21 9 -21 16 -44 19 -44 6z"/>
<path d="M4561 274 c0 -11 3 -14 6 -6 3 7 2 16 -1 19 -3 4 -6 -2 -5 -13z"/>
<path d="M5080 276 c0 -9 5 -16 10 -16 6 0 10 4 10 9 0 6 -4 13 -10 16 -5 3
-10 -1 -10 -9z"/>
<path d="M5096 239 c-17 -34 -14 -49 10 -49 10 0 14 12 14 40 0 22 -2 40 -4
40 -3 0 -12 -14 -20 -31z"/>
<path d="M4601 244 c0 -11 3 -14 6 -6 3 7 2 16 -1 19 -3 4 -6 -2 -5 -13z"/>
<path d="M4425 180 c-7 -11 63 -45 73 -36 3 3 0 6 -7 6 -8 0 -10 7 -6 20 5 17
2 20 -24 20 -16 0 -33 -5 -36 -10z"/>
<path d="M4970 180 c0 -5 4 -10 9 -10 6 0 13 5 16 10 3 6 -1 10 -9 10 -9 0
-16 -4 -16 -10z"/>
<path d="M4975 131 c-3 -6 3 -15 14 -21 12 -6 22 -6 26 -1 3 6 -3 15 -14 21
-12 6 -22 6 -26 1z"/>
<path d="M4235 120 c3 -5 10 -10 16 -10 5 0 9 5 9 10 0 6 -7 10 -16 10 -8 0
-12 -4 -9 -10z"/>
<path d="M4968 67 c-2 -14 -14 -24 -35 -29 -18 -5 -33 -12 -33 -17 0 -15 29
-21 95 -21 55 0 66 3 75 21 19 34 -8 63 -58 65 -34 1 -41 -2 -44 -19z"/>
</g>
</svg>
